<?xml version="1.0" encoding="UTF-8"?>
<svg width="544px" height="386px" viewBox="0 0 544 386" version="1.1" xmlns="http://www.w3.org/2000/svg" xmlns:xlink="http://www.w3.org/1999/xlink">
    <!-- Generator: Sketch 50.2 (55047) - http://www.bohemiancoding.com/sketch -->
    <title>Verdecard@3x</title>
    <desc>Created with Sketch.</desc>
    <defs>
        <linearGradient x1="100%" y1="100%" x2="0%" y2="0%" id="linearGradient-1">
            <stop stop-color="#F7C500" offset="0%"></stop>
            <stop stop-color="#FFE800" offset="49.9563224%"></stop>
            <stop stop-color="#FACF00" offset="100%"></stop>
        </linearGradient>
        <linearGradient x1="-2.296358%" y1="0%" x2="104.529527%" y2="104.001687%" id="linearGradient-2">
            <stop stop-color="#00BE86" offset="0%"></stop>
            <stop stop-color="#004E0F" offset="100%"></stop>
        </linearGradient>
        <linearGradient x1="0%" y1="0%" x2="100%" y2="100%" id="linearGradient-3">
            <stop stop-color="#00BB82" offset="0%"></stop>
            <stop stop-color="#004319" offset="100%"></stop>
        </linearGradient>
    </defs>
    <g id="Verdecard" stroke="none" stroke-width="1" fill="none" fill-rule="evenodd">
        <g id="Verocard-Logo" transform="translate(115.000000, 92.000000)">
            <path d="M235.542969,0 C259.442708,0 277.96875,6.41308594 291.121094,19.2392578 C304.273438,32.0654297 311.971523,49.8251953 314.215349,72.5185547 L314.216546,202.461132 L78.6735774,202.461132 C54.7738378,202.461132 36.2477962,196.048046 23.0954524,183.221874 C9.94310867,170.395702 2.24502352,152.635936 0.00119696691,129.942577 L0,0 L235.542969,2.13054783e-14 Z" id="Combined-Shape" fill="url(#linearGradient-1)"></path>
            <path d="M101,59 L121,59 C121,52.402449 118.189696,47 110.995316,47 C104.494145,47 101.388759,52.3877551 101,59 Z M138,68.6057983 L102.136906,68.6057983 C103.131029,76.2649245 108.601037,79.244263 117.375454,79.244263 C122.930623,79.2303001 128.388278,77.7619905 133.220743,74.9812985 L133.220743,88.4901592 C127.433362,90.9626786 120.861884,92 114.18306,92 C97.0449438,92 84,81.2573295 84,62.9407922 C84,44.6242548 95.6681072,34 111.793431,34 C131.022472,34 138,48.5746019 138,65.0722744 L138,68.6057983 Z M44.7039041,91 L18,7.3815221 L40.0073311,7.3815221 L57.9231978,73.7477567 L76.7653459,7 L98,7 L70.2627567,91 L44.7039041,91 Z M128,162.767056 C128,167.330055 131.980121,170 137.197112,170 C145.648253,170 151,162.13276 151,154.378611 C148.13643,154.260602 144.911906,154 141.547813,154 C133.972588,154 128,156.414259 128,162.767056 Z M171.976551,181.549378 L151.979491,181.549378 C151.871627,178.177032 151.510517,174.930624 151.510517,171.670223 C146.290834,179.50638 140.255136,183 131.27897,183 C123.189165,183 115.671508,180.420598 111.375704,174.907302 L111.666468,179.627654 C105.241522,181.190221 98.0943548,182.990671 86.581038,182.990671 C64.0374479,182.990671 38,171.660894 38,139.845164 C38,110.576185 58.5879677,96 86.4591047,96 C95.0647814,96 103.421902,97.931053 111.535156,100.342537 L109.715536,118.533616 C102.446435,114.559565 95.4212018,112.628512 87.6737479,112.628512 C71.6864172,112.628512 61.2611206,124.200836 61.2611206,139.854493 C61.2611206,156.375724 73.0089245,166.371488 89.4886781,166.371488 C95.7541735,166.371488 102.104084,164.972175 107.647359,163.106423 C107.745844,144.066427 128.638645,141.79021 140.236377,141.79021 C143.645931,141.803416 147.048985,142.08729 150.413117,142.639127 C150.291184,134.079991 143.875617,131.794446 135.99685,131.794446 C128.962237,131.794446 121.927624,133.119129 115.882546,136.491475 L115.521436,121.794017 C123.27358,118.659554 131.396213,117.330206 140.71942,117.330206 C156.828684,117.325541 170.785357,124.219494 170.785357,143.343448 L170.785357,166.725981 C170.704564,171.693098 171.111374,176.6562 172,181.544714 L171.976551,181.549378 Z M191,62.425546 C191,71.0701522 195.304613,77 202.450925,77 C208.741922,77 214,71.0701522 214,63.1575116 C214,54.9298478 209.372892,49 202.450925,49 C195.089616,49 191,55.2448709 191,62.4348114 L191,62.425546 Z M233.337111,7 L233.337111,56.5079002 C236.128131,42.6971857 247.381638,34.8461457 262.174516,34.8461457 C282.587088,34.8461457 290,49.2514231 290,65.5574294 L290,69.0311752 L251.923518,69.0311752 C252.982505,76.6013194 258.804583,79.5460446 268.104846,79.5460446 C273.975141,79.5399092 279.753163,78.0926279 284.926273,75.3326063 L284.926273,88.6845241 L285.279269,181.529978 L264.993776,181.529978 L264.993776,170.294143 C261.953305,177.31654 253.081344,183 242.99037,183 C224.163926,183 214.054126,167.522637 214.054126,148.889876 C214.04772,144.236042 214.897944,139.620362 216.56275,135.271107 C215.517882,135.214928 214.458895,135.214928 213.376374,135.214928 C203.163028,135.214928 197.453909,142.593127 197.453909,154.929138 L197.453909,181.529978 L175.568168,181.529978 L175.568168,118.525031 L195.510079,118.525031 L195.510079,130.126031 C199.515405,122.167314 204.989193,117.069054 214.473014,117.069054 C216.961442,117.110837 219.44226,117.355095 221.890633,117.799383 L221.349373,126.797414 C225.933612,120.996914 232.598173,117.08778 241.168912,117.08778 C249.918501,117.08778 257.340827,119.381763 262.932281,126.642922 L262.932281,92.0225036 C248.812448,90.8708305 236.104598,83.0104272 233.341818,70.0611268 L233.341818,90.9176464 L215.790865,90.9176464 L215.790865,81.1284247 C213.141044,87.2145023 205.436321,92.1723147 196.644372,92.1723147 C180.251246,92.1723147 171.478124,78.7080385 171.478124,62.509709 C171.478744,58.4640929 172.21873,54.4522863 173.661991,50.6699473 C172.748908,50.6278129 171.826413,50.6278129 170.889797,50.6278129 C162.008422,50.6278129 157.033535,57.0322392 157.033535,67.7765069 L157.033535,90.9176464 L138,90.9176464 L138,36.100814 L155.343861,36.100814 L155.343861,46.2037027 C158.83146,39.2608927 163.59455,34.8461457 171.840533,34.8461457 C174.003274,34.8837255 176.159517,35.0935073 178.28859,35.4734798 L177.817928,43.2777039 C181.804428,38.2403043 187.612386,34.8508273 195.058244,34.8508273 C202.682954,34.8508273 209.121598,36.8451881 213.997647,43.1606639 L214.200031,7.0046816 L233.337111,7 Z M237,149.341583 C237,159.213237 241.870979,166 249.940262,166 C257.06292,166 263,159.213237 263,150.179568 C263,140.782158 257.779781,134 249.940262,134 C241.62743,134 237,141.136691 237,149.341583 Z M252,59 L274,59 C274,52.402449 270.919412,47 263,47 C255.844613,47 252.430988,52.3877551 252,59 Z" id="Shape" fill="url(#linearGradient-2)"></path>
            <path d="M230.388244,8 C252.750285,8 270.08437,13.8916691 282.390498,25.6750072 C294.696626,37.4583453 301.89942,53.7741506 303.99888,74.622423 L304,194 L83.6117561,194 C61.2497146,194 43.9156299,188.108331 31.6095018,176.324993 C19.3033737,164.541655 12.1005798,148.225849 10.00112,127.377577 L10,8 L230.388244,8 Z" id="Combined-Shape" stroke="url(#linearGradient-3)" stroke-width="3"></path>
        </g>
    </g>
</svg>